<svg id="Capa_1" enable-background="new 0 0 512.009 512.009" height="512" viewBox="0 0 512.009 512.009" width="512" xmlns="http://www.w3.org/2000/svg"><g id="Writer_1_"><g><path d="m151.071 85.791-42.429 42.43 221.928 221.913 42.422-42.422z"/><path d="m87.431 149.432-42.422 42.421 221.921 221.921 42.429-42.429z"/><path d="m23.798 170.642 106.062-106.062-10.613-10.613c-17.52-17.563-46.084-17.534-63.633 0l-42.421 42.423c-17.564 17.564-17.617 46.031 0 63.647z"/></g><path d="m497.009 441.203h-70.789l-36.072-108.226-97.958 97.958 118.477 39.492c1.553.527 3.164.776 4.746.776h81.596c8.291 0 15-6.709 15-15s-6.709-15-15-15z"/></g></svg>