<svg id="Layer_1" enable-background="new 0 0 510 510" height="512" viewBox="0 0 510 510" width="512" xmlns="http://www.w3.org/2000/svg"><g id="XMLID_112_"><path id="XMLID_42_" d="m360.375 148.413c26.906-60.614 35.024-78.082 65.83-148.413h-43.124l-58.591 131.829c12.546 4.413 24.552 9.981 35.885 16.584z"/><path id="XMLID_699_" d="m255 120c13.746 0 27.184 1.335 40.198 3.87l55.054-123.87h-44.045c-15.409 34.888-35.421 80.195-51.276 116.093l-51.391-116.093h-43.792l55.053 123.87c13.015-2.535 26.453-3.87 40.199-3.87z"/><path id="XMLID_731_" d="m185.509 131.829-58.591-131.829h-43.487l66.123 148.455c11.354-6.621 23.384-12.203 35.955-16.626z"/><path id="XMLID_767_" d="m255 150c-99.252 0-180 80.748-180 180s80.748 180 180 180 180-80.748 180-180-80.748-180-180-180zm-57.701 262.353 11.02-64.25-46.681-45.503 64.512-9.374 28.85-58.457 28.851 58.457 64.511 9.374-46.681 45.503 11.02 64.25-57.701-30.335zm57.701-64.228 17.857 9.388-3.41-19.885 14.446-14.081-19.964-2.901-8.929-18.091-8.928 18.091-19.964 2.901 14.446 14.081-3.411 19.885z"/></g></svg>