<svg id="Layer_1_1_" enable-background="new 0 0 64 64" height="512" viewBox="0 0 64 64" width="512" xmlns="http://www.w3.org/2000/svg"><circle cx="27" cy="24" r="4"/><path d="m14 59.99994v.00006 2h25v-5h-4v-2h4 13v-13h7l-3-14c0-15.34009-13.28479-27.57721-28.97699-25.83429-12.04352 1.33759-21.68597 11.10577-22.8894 23.16339-.66052 6.6181 1.16565 12.78949 4.65356 17.69904 3.50476 4.93335 5.21283 10.92029 5.21283 16.9718zm2.70898-23.7475c-1.09082-.91699-2.05371-1.97412-2.86426-3.14258l1.64453-1.13965c.70801 1.02295 1.55176 1.94824 2.50684 2.75098zm5.58301 3.04346c-1.36035-.41846-2.66016-1.01855-3.86328-1.78369l1.07422-1.6875c1.05176.66895 2.1875 1.19385 3.37695 1.55908zm2.70801 17.7041h-2v-2h2zm-.62988-17.21582.32617-1.97266c.75976.12598 1.54004.15772 2.31641.18848.46777 0 .93945-.02393 1.4043-.0708l.20117 1.99023c-.53223.05323-1.07129.08057-1.6045.08057-.00488 0-.00977 0-.01465 0-.88086 0-1.76562-.07275-2.6289-.21582zm4.62988 17.21582h-2v-2h2zm4 0h-2v-2h2zm-2.28125-17.43506-.46289-1.94531c1.20996-.28809 2.37793-.73828 3.4707-1.33838l.96289 1.75293c-1.25097.68652-2.58593 1.20166-3.9707 1.53076zm3.97339-13.38757c-.17151.60681-.40924 1.18488-.71118 1.72388l.92316 2.2088c-.52008.67181-1.12231 1.27399-1.79413 1.79413l-2.20874-.92316c-.539.30194-1.11707.53967-1.72388.71112l-.91022 2.21887c-.41595.05274-.83691.08899-1.26715.08899s-.8512-.03625-1.26715-.08899l-.91022-2.21887c-.60687-.17157-1.18494-.4093-1.72394-.71118l-2.2088.9231c-.67175-.52014-1.27399-1.12231-1.79407-1.79413l.92316-2.20874c-.30188-.539-.53967-1.11707-.71118-1.72388l-2.21881-.91016c-.05274-.41589-.08899-.83691-.08899-1.26715s.03625-.8512.08899-1.26715l2.21887-.91022c.17151-.60681.40924-1.18488.71118-1.72388l-.92316-2.20886c.52014-.67181 1.12238-1.27399 1.79419-1.79407l2.20868.92316c.539-.30188 1.11707-.53967 1.72388-.71112l.91022-2.21887c.41595-.05274.83691-.08899 1.26715-.08899s.8512.03625 1.26715.08899l.91022 2.21887c.60681.17151 1.18494.40924 1.72394.71118l2.20874-.9231c.67181.52008 1.27405 1.12225 1.79413 1.79407l-.92316 2.20874c.30194.539.53967 1.11707.71112 1.72388l2.21887.91022c.05274.41595.08899.83691.08899 1.26715s-.03625.8512-.08899 1.26715zm1.79419 10.70935-1.1875-1.60938c1.00195-.73877 1.90332-1.60889 2.67871-2.58643l1.56641 1.24316c-.88477 1.11573-1.91309 2.1089-3.05762 2.95265zm4.01074-9.15283 1.92773.53223c-.37891 1.37305-.94141 2.68994-1.67188 3.91357l-1.7168-1.02441c.63771-1.07032 1.1299-2.2212 1.46095-3.42139zm-13.49707-19.73389h7.58594l-1.29297-1.29297 1.41406-1.41406 3.70703 3.70703-3.70703 3.70703-1.41406-1.41406 1.29297-1.29297h-7.58594c-7.71973 0-14 6.28027-14 14 0 1.26855.16895 2.5249.50293 3.73389.25098.9082.59668 1.79492 1.02734 2.63672l-1.7793.91211c-.49316-.96289-.88867-1.97754-1.17578-3.0166-.38183-1.38233-.57519-2.81788-.57519-4.26612 0-8.82227 7.17773-16 16-16z"/></svg>